<svg width="48" height="48" viewBox="0 0 48 48" fill="none" xmlns="http://www.w3.org/2000/svg">
  <!-- Shield Shape -->
  <path d="M24 4L40 12V28C40 36 24 44 24 44C24 44 8 36 8 28V12L24 4Z" fill="#1e40af" stroke="#1e40af" stroke-width="2"/>
  
  <!-- Inner Shield -->
  <path d="M24 8L34 14V26C34 32 24 38 24 38C24 38 14 32 14 26V14L24 8Z" fill="#3b82f6"/>
  
  <!-- Star -->
  <path d="M24 16L26.5 21H32L27.5 24.5L29 30L24 26.5L19 30L20.5 24.5L16 21H21.5L24 16Z" fill="white"/>
  
  <!-- Text Elements -->
  <circle cx="24" cy="40" r="1.5" fill="#1e40af"/>
  <circle cx="20" cy="40" r="1" fill="#1e40af"/>
  <circle cx="28" cy="40" r="1" fill="#1e40af"/>
</svg>